<?xml version="1.0" encoding="UTF-8"?>
<svg id="Layer_2" data-name="Layer 2" xmlns="http://www.w3.org/2000/svg" viewBox="0 0 210.06 36.03">
  <defs>
    <style>
      .cls-1 {
        fill: #5c4c9f;
        stroke-width: 0px;
      }
    </style>
  </defs>
  <g id="Layer_1-2" data-name="Layer 1">
    <g>
      <g>
        <ellipse class="cls-1" cx="12.83" cy="18.02" rx="20.2" ry="9.01" transform="translate(-9.2 19.99) rotate(-59.67)"/>
        <ellipse class="cls-1" cx="31.76" cy="18.02" rx="20.2" ry="9.01" transform="translate(.17 36.33) rotate(-59.67)"/>
        <ellipse class="cls-1" cx="50.69" cy="18.02" rx="20.2" ry="9.01" transform="translate(9.54 52.67) rotate(-59.67)"/>
        <circle class="cls-1" cx="59.29" cy="31.81" r="4.23"/>
        <circle class="cls-1" cx="4.23" cy="4.23" r="4.23"/>
      </g>
      <g>
        <path class="cls-1" d="m189.26,7.22v21.59h-4.92V7.22h4.92Zm-2.46,28.79h0c1.36,0,2.46-1.1,2.46-2.46h0c0-1.36-1.1-2.46-2.46-2.46h0c-1.36,0-2.46,1.1-2.46,2.46h0c0,1.36,1.1,2.46,2.46,2.46Z"/>
        <path class="cls-1" d="m80.21,28.81V7.22s4.92,0,4.92,0v21.59s-4.92,0-4.92,0ZM82.67.02h0c-1.36,0-2.46,1.1-2.46,2.46h0c0,1.36,1.1,2.46,2.46,2.46h0c1.36,0,2.46-1.1,2.46-2.46h0c0-1.36-1.1-2.46-2.46-2.46Z"/>
        <g>
          <path class="cls-1" d="m131.95,7.22h5.23v11.06c0,2.17.12,4.02,1.21,5.11.6.6,1.37.93,2.42.93s1.85-.32,2.45-.93c1.09-1.09,1.21-2.94,1.21-5.11V7.22h5.23v11.06c0,3.82-.48,6.2-2.37,8.17-1.29,1.37-3.42,2.57-6.52,2.57s-5.19-1.21-6.48-2.57c-1.89-1.97-2.37-4.35-2.37-8.17V7.22Z"/>
          <path class="cls-1" d="m144.46,7.22h5.23v11.06c0,2.17.12,4.02,1.21,5.11.6.6,1.37.93,2.42.93s1.85-.32,2.45-.93c1.09-1.09,1.21-2.94,1.21-5.11V7.22h5.23v11.06c0,3.82-.48,6.2-2.37,8.17-1.29,1.37-3.42,2.57-6.52,2.57s-5.19-1.21-6.48-2.57c-1.89-1.97-2.37-4.35-2.37-8.17V7.22Z"/>
        </g>
        <path class="cls-1" d="m104.6,28.81h-4.92v-11.49c0-2.04-.11-3.79-1.14-4.81-.57-.57-1.29-.87-2.27-.87s-1.74.3-2.31.87c-1.02,1.02-1.14,2.76-1.14,4.81v11.49h-4.92v-11.49c0-3.6.45-5.83,2.23-7.68,1.21-1.29,3.22-2.42,6.13-2.42s4.88,1.14,6.09,2.42c1.78,1.85,2.23,4.09,2.23,7.68v11.49Z"/>
        <path class="cls-1" d="m192.04,7.22h5.52l3.48,14.27,3.51-14.27h5.52l-5.37,18.99c-1.08,3.62-6.2,3.62-7.28,0l-5.37-18.99Z"/>
        <g>
          <path class="cls-1" d="m181.57,28.81h-4.92v-11.73c0-2.04-.11-3.79-1.14-4.81-.57-.57-1.29-.87-2.27-.87s-1.74.3-2.31.87c-1.02,1.02-1.14,2.76-1.14,4.81v11.73h-4.92v-11.73c0-3.6.45-5.83,2.23-7.68,1.21-1.29,3.22-2.42,6.13-2.42s4.88,1.14,6.09,2.42c1.78,1.85,2.23,4.09,2.23,7.68v11.73Z"/>
          <rect class="cls-1" x="169.5" y="17.49" width="7.8" height="5.13"/>
        </g>
        <path class="cls-1" d="m118.27,12.17c3.28,0,5.95,2.67,5.95,5.95s-2.67,5.95-5.95,5.95-5.95-2.67-5.95-5.95,2.67-5.95,5.95-5.95m0-4.95c-6.02,0-10.9,4.88-10.9,10.9s4.88,10.9,10.9,10.9,10.9-4.88,10.9-10.9-4.88-10.9-10.9-10.9h0Z"/>
      </g>
    </g>
  </g>
</svg>